<?xml version="1.0" standalone="no"?>
<!DOCTYPE svg PUBLIC "-//W3C//DTD SVG 20010904//EN"
 "http://www.w3.org/TR/2001/REC-SVG-20010904/DTD/svg10.dtd">
<svg version="1.0" xmlns="http://www.w3.org/2000/svg"
 width="640.000000pt" height="640.000000pt" viewBox="0 0 640.000000 640.000000"
 preserveAspectRatio="xMidYMid meet">

<g transform="translate(0.000000,640.000000) scale(0.100000,-0.100000)"
fill="#000000" stroke="none">
<path d="M1014 5710 c-153 -31 -293 -177 -324 -340 -6 -32 -10 -288 -10 -644
0 -642 3 -676 55 -769 59 -105 177 -188 292 -207 32 -6 337 -10 690 -10 l633
0 -36 -65 c-43 -79 -90 -213 -105 -303 -14 -87 -14 -258 1 -347 58 -354 340
-677 685 -785 262 -81 516 -61 759 61 43 21 80 39 82 39 2 0 4 -289 4 -643 0
-541 2 -652 15 -701 39 -150 163 -269 315 -302 83 -18 1211 -20 1306 -3 164
30 302 170 334 339 6 32 10 288 10 644 0 642 -3 676 -55 769 -57 101 -167 181
-283 206 -36 7 -255 11 -687 11 -349 0 -635 2 -635 5 0 2 15 33 34 67 45 83
82 194 101 302 73 419 -134 842 -515 1054 -273 152 -654 155 -937 8 l-83 -43
0 646 c0 703 -1 712 -56 807 -59 100 -175 183 -284 204 -63 12 -1245 12 -1306
0z m1325 -223 c56 -29 98 -89 111 -156 6 -33 10 -311 10 -717 l0 -664 -708 0
-709 0 -42 23 c-24 12 -57 42 -75 65 l-31 44 -3 621 c-2 342 0 636 3 653 7 39
78 122 120 140 24 10 158 13 656 14 l626 0 42 -23z m1096 -1517 c274 -87 489
-317 550 -590 34 -152 16 -362 -42 -494 -82 -188 -254 -356 -441 -432 -183
-74 -422 -72 -610 4 -217 89 -406 302 -467 527 -26 97 -31 275 -11 375 63 310
304 555 616 625 97 22 313 14 405 -15z m1978 -1550 c21 -14 50 -43 65 -64 l27
-39 3 -634 c2 -570 1 -636 -14 -666 -23 -45 -63 -86 -107 -108 -36 -19 -61
-19 -670 -17 l-634 3 -39 27 c-52 37 -82 83 -94 147 -6 33 -10 311 -10 718 l0
663 718 -2 718 -3 37 -25z"/>
<path d="M1640 5056 c-25 -8 -40 -22 -54 -49 -16 -34 -17 -42 -4 -75 9 -26 24
-42 51 -56 34 -16 42 -17 75 -4 22 8 44 27 55 47 17 28 18 38 8 71 -6 20 -17
43 -25 49 -26 22 -71 29 -106 17z"/>
<path d="M1425 4584 c-41 -10 -64 -28 -80 -59 -19 -41 -11 -86 22 -117 25 -23
25 -23 308 -23 l283 0 26 24 c48 45 43 121 -13 158 -23 16 -54 18 -276 20
-137 1 -259 -1 -270 -3z"/>
<path d="M3129 3511 c-41 -42 -41 -98 2 -140 23 -24 39 -31 69 -31 55 0 100
46 100 102 0 88 -108 132 -171 69z"/>
<path d="M2971 3029 c-50 -50 -38 -125 26 -158 14 -7 89 -11 203 -11 114 0
189 4 203 11 64 33 76 108 26 158 l-31 31 -198 0 -198 0 -31 -31z"/>
<path d="M4694 2013 c-57 -11 -86 -86 -57 -143 31 -60 109 -72 157 -24 50 50
35 133 -28 159 -20 8 -39 14 -43 14 -4 -1 -18 -4 -29 -6z"/>
<path d="M4445 1526 c-35 -15 -65 -55 -65 -86 0 -37 30 -81 65 -96 27 -11 91
-14 282 -14 216 0 252 2 283 18 75 37 73 145 -4 177 -49 21 -515 21 -561 1z"/>
<path d="M4692 5058 c-35 -9 -72 -57 -72 -93 0 -35 37 -82 73 -94 78 -26 152
47 127 124 -17 53 -69 78 -128 63z"/>
<path d="M4475 4584 c-92 -22 -123 -115 -59 -175 26 -24 26 -24 298 -27 269
-3 272 -3 306 20 43 29 57 75 35 121 -28 60 -35 62 -310 64 -137 1 -259 -1
-270 -3z"/>
<path d="M1638 2015 c-86 -48 -53 -185 45 -185 49 0 73 13 92 50 22 43 18 76
-12 110 -34 37 -85 47 -125 25z"/>
<path d="M1393 1531 c-34 -21 -53 -67 -45 -108 7 -34 48 -70 90 -77 63 -10
474 -7 515 5 76 21 98 112 42 168 l-25 26 -273 3 c-256 2 -274 1 -304 -17z"/>
</g>
</svg>
